<svg width="27" height="28" viewBox="0 0 27 28" fill="none" xmlns="http://www.w3.org/2000/svg">
<g clip-path="url(#clip0_720_1482)">
<path d="M0.585195 13.4427C0.584563 15.7289 1.18194 17.9613 2.31784 19.9289L0.476562 26.6517L7.3565 24.8478C9.25941 25.8837 11.3915 26.4265 13.5581 26.4266H13.5638C20.7161 26.4266 26.5383 20.6065 26.5414 13.4529C26.5428 9.98647 25.194 6.72685 22.7436 4.2745C20.2935 1.82235 17.0351 0.471187 13.5632 0.469604C6.41003 0.469604 0.588254 6.28937 0.585301 13.4427" fill="url(#paint0_linear_720_1482)"/>
<path d="M0.122617 13.4384C0.121879 15.8069 0.740664 18.1191 1.91706 20.1572L0.00976562 27.121L7.13639 25.2524C9.10001 26.323 11.3108 26.8875 13.5605 26.8883H13.5663C20.9753 26.8883 27.0066 20.8589 27.0098 13.4492C27.011 9.85816 25.6138 6.48137 23.0758 3.94116C20.5375 1.40126 17.1625 0.00147656 13.5663 0C6.15606 0 0.12557 6.02859 0.122617 13.4384ZM4.36679 19.8062L4.10069 19.3838C2.98209 17.6052 2.39167 15.5498 2.39252 13.4392C2.39484 7.2804 7.40713 2.26969 13.5705 2.26969C16.5553 2.27095 19.3603 3.43448 21.4701 5.54555C23.5798 7.65682 24.7407 10.4633 24.74 13.4483C24.7372 19.6072 19.7248 24.6185 13.5663 24.6185H13.5619C11.5566 24.6175 9.58991 24.0789 7.87478 23.0613L7.46662 22.8192L3.23753 23.928L4.36679 19.8062Z" fill="url(#paint1_linear_720_1482)"/>
<path d="M10.2054 7.82027C9.9537 7.26097 9.68887 7.24968 9.44956 7.23987C9.2536 7.23143 9.02958 7.23207 8.80578 7.23207C8.58176 7.23207 8.21779 7.31634 7.91014 7.65225C7.60217 7.98849 6.73438 8.80102 6.73438 10.4536C6.73438 12.1062 7.93809 13.7034 8.10589 13.9277C8.2739 14.1517 10.4297 17.6515 13.8439 18.9979C16.6814 20.1169 17.2589 19.8943 17.8747 19.8382C18.4907 19.7823 19.8622 19.0259 20.142 18.2415C20.422 17.4573 20.422 16.785 20.338 16.6445C20.2541 16.5046 20.0301 16.4205 19.6942 16.2526C19.3582 16.0847 17.7067 15.2719 17.3988 15.1598C17.0909 15.0478 16.867 14.9919 16.643 15.3283C16.4189 15.6641 15.7757 16.4205 15.5796 16.6445C15.3838 16.8691 15.1877 16.897 14.8519 16.729C14.5158 16.5605 13.434 16.2062 12.1505 15.062C11.1519 14.1716 10.4778 13.0721 10.2818 12.7357C10.0859 12.3999 10.2608 12.2179 10.4293 12.0505C10.5802 11.9 10.7653 11.6583 10.9334 11.4622C11.1009 11.266 11.1568 11.1261 11.2688 10.9021C11.3809 10.6778 11.3248 10.4817 11.2409 10.3137C11.1568 10.1456 10.504 8.4844 10.2054 7.82027Z" fill="white"/>
</g>
<defs>
<linearGradient id="paint0_linear_720_1482" x1="1303.72" y1="2618.68" x2="1303.72" y2="0.469604" gradientUnits="userSpaceOnUse">
<stop stop-color="#1FAF38"/>
<stop offset="1" stop-color="#60D669"/>
</linearGradient>
<linearGradient id="paint1_linear_720_1482" x1="1350.01" y1="2712.1" x2="1350.01" y2="0" gradientUnits="userSpaceOnUse">
<stop stop-color="#F9F9F9"/>
<stop offset="1" stop-color="white"/>
</linearGradient>
<clipPath id="clip0_720_1482">
<rect width="27" height="27.2109" fill="white" transform="translate(0.00976562)"/>
</clipPath>
</defs>
</svg>
